HIERARCHY
ROOT hip
{
  OFFSET 0 90.174 2.4664
  CHANNELS 6 Xposition Yposition Zposition Zrotation Xrotation Yrotation
  JOINT abdomen
  {
    OFFSET 0 -1.186 -1.5018
    CHANNELS 6 Xposition Yposition Zposition Zrotation Xrotation Yrotation
    JOINT abdomen2
    {
      OFFSET 0 9.964 0.2134
      CHANNELS 6 Xposition Yposition Zposition Zrotation Xrotation Yrotation
      JOINT chest
      {
        OFFSET 0 13.134 -3.2573
        CHANNELS 6 Xposition Yposition Zposition Zrotation Xrotation Yrotation
        JOINT neck
        {
          OFFSET 0 20.686 -1.6905
          CHANNELS 6 Xposition Yposition Zposition Zrotation Xrotation Yrotation
          JOINT head
          {
            OFFSET 0 7.238 -0.1237
            CHANNELS 6 Xposition Yposition Zposition Zrotation Xrotation Yrotation
            End Site
            {
              OFFSET 0 0 0
            }
          }
        }
        JOINT lCollar
        {
          OFFSET 1.7069 20.075 5.0056
          CHANNELS 6 Xposition Yposition Zposition Zrotation Xrotation Yrotation
          JOINT lShldr
          {
            OFFSET 13.6458 -0.047 -4.849
            CHANNELS 6 Xposition Yposition Zposition Zrotation Xrotation Yrotation
            JOINT lForeArm
            {
              OFFSET 28.3255 -0.9759 2.2888
              CHANNELS 6 Xposition Yposition Zposition Zrotation Xrotation Yrotation
              JOINT lHand
              {
                OFFSET 22.1583 -0.53 10.8316
                CHANNELS 6 Xposition Yposition Zposition Zrotation Xrotation Yrotation
                JOINT lThumb1
                {
                  OFFSET 0.786 0.112 2.5817
                  CHANNELS 6 Xposition Yposition Zposition Zrotation Xrotation Yrotation
                  JOINT lThumb2
                  {
                    OFFSET 0.3601 -0.878 4.2331
                    CHANNELS 6 Xposition Yposition Zposition Zrotation Xrotation Yrotation
                    JOINT lThumb2_End
                    {
                      OFFSET 1.8127 -1.216 2.2227
                      CHANNELS 6 Xposition Yposition Zposition Zrotation Xrotation Yrotation
                      End Site
                      {
                        OFFSET 0.0181 -0.0122 0.0222
                      }
                    }
                  }
                }
                JOINT lCarpal1
                {
                  OFFSET 0.9571 1.114 1.7695
                  CHANNELS 6 Xposition Yposition Zposition Zrotation Xrotation Yrotation
                  JOINT lIndex1
                  {
                    OFFSET 4.1246 0.487 4.1451
                    CHANNELS 6 Xposition Yposition Zposition Zrotation Xrotation Yrotation
                    JOINT lIndex2
                    {
                      OFFSET 3.4052 -1.454 2.7682
                      CHANNELS 6 Xposition Yposition Zposition Zrotation Xrotation Yrotation
                      JOINT lIndex2_End
                      {
                        OFFSET 1.4531 -1.795 1.2713
                        CHANNELS 6 Xposition Yposition Zposition Zrotation Xrotation Yrotation
                        End Site
                        {
                          OFFSET 0.0145 -0.0179 0.0127
                        }
                      }
                    }
                  }
                  JOINT lMid1
                  {
                    OFFSET 5.6954 0.21 2.1184
                    CHANNELS 6 Xposition Yposition Zposition Zrotation Xrotation Yrotation
                    JOINT lMid2
                    {
                      OFFSET 3.9766 -1.54 2.3863
                      CHANNELS 6 Xposition Yposition Zposition Zrotation Xrotation Yrotation
                      JOINT lMid2_End
                      {
                        OFFSET 1.4042 -1.926 1.125
                        CHANNELS 6 Xposition Yposition Zposition Zrotation Xrotation Yrotation
                        End Site
                        {
                          OFFSET 0.014 -0.0193 0.0113
                        }
                      }
                    }
                  }
                }
                JOINT lCarpal2
                {
                  OFFSET 2.0956 0.66 -0.3894
                  CHANNELS 6 Xposition Yposition Zposition Zrotation Xrotation Yrotation
                  JOINT lRing1
                  {
                    OFFSET 5.0395 -0.09 2.4971
                    CHANNELS 6 Xposition Yposition Zposition Zrotation Xrotation Yrotation
                    JOINT lRing2
                    {
                      OFFSET 3.7921 -1.552 1.4806
                      CHANNELS 6 Xposition Yposition Zposition Zrotation Xrotation Yrotation
                      JOINT lRing2_End
                      {
                        OFFSET 1.4655 -1.808 0.9609
                        CHANNELS 6 Xposition Yposition Zposition Zrotation Xrotation Yrotation
                        End Site
                        {
                          OFFSET 0.0147 -0.0181 0.0096
                        }
                      }
                    }
                  }
                  JOINT lPinky1
                  {
                    OFFSET 4.9141 -1.269 0.3591
                    CHANNELS 6 Xposition Yposition Zposition Zrotation Xrotation Yrotation
                    JOINT lPinky2
                    {
                      OFFSET 3.1477 -1.685 0.8462
                      CHANNELS 6 Xposition Yposition Zposition Zrotation Xrotation Yrotation
                      JOINT lPinky2_End
                      {
                        OFFSET 0.8055 -1.585 0.7955
                        CHANNELS 6 Xposition Yposition Zposition Zrotation Xrotation Yrotation
                        End Site
                        {
                          OFFSET 0.0081 -0.0158 0.008
                        }
                      }
                    }
                  }
                }
              }
            }
          }
        }
        JOINT rCollar
        {
          OFFSET -1.7069 20.075 5.0056
          CHANNELS 6 Xposition Yposition Zposition Zrotation Xrotation Yrotation
          JOINT rShldr
          {
            OFFSET -13.6458 -0.047 -4.849
            CHANNELS 6 Xposition Yposition Zposition Zrotation Xrotation Yrotation
            JOINT rForeArm
            {
              OFFSET -28.3255 -0.9759 2.2888
              CHANNELS 6 Xposition Yposition Zposition Zrotation Xrotation Yrotation
              JOINT rHand
              {
                OFFSET -22.1583 -0.53 10.8316
                CHANNELS 6 Xposition Yposition Zposition Zrotation Xrotation Yrotation
                JOINT rThumb1
                {
                  OFFSET -0.786 0.112 2.5817
                  CHANNELS 6 Xposition Yposition Zposition Zrotation Xrotation Yrotation
                  JOINT rThumb2
                  {
                    OFFSET -0.3601 -0.878 4.2331
                    CHANNELS 6 Xposition Yposition Zposition Zrotation Xrotation Yrotation
                    JOINT rThumb2_End
                    {
                      OFFSET -1.8127 -1.216 2.2227
                      CHANNELS 6 Xposition Yposition Zposition Zrotation Xrotation Yrotation
                      End Site
                      {
                        OFFSET -0.0181 -0.0122 0.0222
                      }
                    }
                  }
                }
                JOINT rCarpal1
                {
                  OFFSET -0.9571 1.114 1.7695
                  CHANNELS 6 Xposition Yposition Zposition Zrotation Xrotation Yrotation
                  JOINT rIndex1
                  {
                    OFFSET -4.1246 0.487 4.1451
                    CHANNELS 6 Xposition Yposition Zposition Zrotation Xrotation Yrotation
                    JOINT rIndex2
                    {
                      OFFSET -3.4052 -1.454 2.7682
                      CHANNELS 6 Xposition Yposition Zposition Zrotation Xrotation Yrotation
                      JOINT rIndex2_End
                      {
                        OFFSET -1.4531 -1.795 1.2713
                        CHANNELS 6 Xposition Yposition Zposition Zrotation Xrotation Yrotation
                        End Site
                        {
                          OFFSET -0.0145 -0.018 0.0127
                        }
                      }
                    }
                  }
                  JOINT rMid1
                  {
                    OFFSET -5.6954 0.21 2.1184
                    CHANNELS 6 Xposition Yposition Zposition Zrotation Xrotation Yrotation
                    JOINT rMid2
                    {
                      OFFSET -3.9766 -1.54 2.3863
                      CHANNELS 6 Xposition Yposition Zposition Zrotation Xrotation Yrotation
                      JOINT rMid2_End
                      {
                        OFFSET -1.4042 -1.926 1.125
                        CHANNELS 6 Xposition Yposition Zposition Zrotation Xrotation Yrotation
                        End Site
                        {
                          OFFSET -0.014 -0.0193 0.0113
                        }
                      }
                    }
                  }
                }
                JOINT rCarpal2
                {
                  OFFSET -2.0956 0.66 -0.3894
                  CHANNELS 6 Xposition Yposition Zposition Zrotation Xrotation Yrotation
                  JOINT rRing1
                  {
                    OFFSET -5.0395 -0.09 2.4971
                    CHANNELS 6 Xposition Yposition Zposition Zrotation Xrotation Yrotation
                    JOINT rRing2
                    {
                      OFFSET -3.7921 -1.552 1.4806
                      CHANNELS 6 Xposition Yposition Zposition Zrotation Xrotation Yrotation
                      JOINT rRing2_End
                      {
                        OFFSET -1.4655 -1.808 0.9609
                        CHANNELS 6 Xposition Yposition Zposition Zrotation Xrotation Yrotation
                        End Site
                        {
                          OFFSET -0.0147 -0.0181 0.0096
                        }
                      }
                    }
                  }
                  JOINT rPinky1
                  {
                    OFFSET -4.9141 -1.269 0.3592
                    CHANNELS 6 Xposition Yposition Zposition Zrotation Xrotation Yrotation
                    JOINT rPinky2
                    {
                      OFFSET -3.1477 -1.685 0.8462
                      CHANNELS 6 Xposition Yposition Zposition Zrotation Xrotation Yrotation
                      JOINT rPinky2_End
                      {
                        OFFSET -0.8055 -1.585 0.7955
                        CHANNELS 6 Xposition Yposition Zposition Zrotation Xrotation Yrotation
                        End Site
                        {
                          OFFSET -0.0081 -0.0158 0.008
                        }
                      }
                    }
                  }
                }
              }
            }
          }
        }
      }
    }
  }
  JOINT lThigh
  {
    OFFSET 8.367 -8.2066 0.5982
    CHANNELS 6 Xposition Yposition Zposition Zrotation Xrotation Yrotation
    JOINT lShin
    {
      OFFSET 2.1923 -43.463 -0.4932
      CHANNELS 6 Xposition Yposition Zposition Zrotation Xrotation Yrotation
      JOINT lFoot
      {
        OFFSET 0.7333 -45.8593 -2.6451
        CHANNELS 6 Xposition Yposition Zposition Zrotation Xrotation Yrotation
        End Site
        {
          OFFSET 2.6618 -4.2699 12.3931
        }
      }
    }
  }
  JOINT rThigh
  {
    OFFSET -8.367 -8.2066 0.5982
    CHANNELS 6 Xposition Yposition Zposition Zrotation Xrotation Yrotation
    JOINT rShin
    {
      OFFSET -2.1923 -43.463 -0.4931
      CHANNELS 6 Xposition Yposition Zposition Zrotation Xrotation Yrotation
      JOINT rFoot
      {
        OFFSET -0.7333 -45.8593 -2.6451
        CHANNELS 6 Xposition Yposition Zposition Zrotation Xrotation Yrotation
        End Site
        {
          OFFSET -2.6618 -4.2699 12.3931
        }
      }
    }
  }
}
MOTION
Frames:	4
Frame Time:	0.0333333
0 90.174 2.4664 0 0 -0 0 -1.186 -1.5018 0 0 -0 0 9.964 0.2134 0 0 -0 0 13.134 -3.2573 0 0 -0 0 20.686 -1.6905 0 0 -0 0 7.238 -0.1237 0 0 -0 1.7069 20.075 5.0056 0 0 -0 13.6458 -0.047 -4.849 1.66051 0.0835086 5.75766 28.3255 -0.9759 2.2888 -0.0175111 0.895433 15.7816 22.1583 -0.53 10.8316 7.95139e-016 -1.98785e-016 -0 0.786 0.112 2.5817 5.46658e-016 -3.97569e-016 -0 0.3601 -0.878 4.2331 5.96354e-016 0 -0 1.8127 -1.216 2.2227 3.97569e-016 1.98785e-016 9.54166e-015 0.9571 1.114 1.7695 1.49089e-016 -3.97569e-016 -0 4.1246 0.487 4.1451 6.4605e-016 0 3.18055e-015 3.4052 -1.454 2.7682 5.96354e-016 0 3.18055e-015 1.4531 -1.795 1.2713 8.94531e-016 -1.98785e-016 6.36111e-015 5.6954 0.21 2.1184 6.4605e-016 0 3.18055e-015 3.9766 -1.54 2.3863 5.96354e-016 0 3.18055e-015 1.4042 -1.926 1.125 8.94531e-016 -1.98785e-016 6.36111e-015 2.0956 0.66 -0.3894 1.49089e-016 -3.97569e-016 -0 5.0395 -0.09 2.4971 6.4605e-016 0 3.18055e-015 3.7921 -1.552 1.4806 5.96354e-016 0 3.18055e-015 1.4655 -1.808 0.9609 8.94531e-016 -1.98785e-016 6.36111e-015 4.9141 -1.269 0.3591 6.4605e-016 0 3.18055e-015 3.1477 -1.685 0.8462 5.96354e-016 0 3.18055e-015 0.8055 -1.585 0.7955 8.94531e-016 -1.98785e-016 6.36111e-015 -1.7069 20.075 5.0056 0 0 -0 -13.6458 -0.047 -4.849 -1.4496 0.0636048 -5.0245 -28.3255 -0.9759 2.2888 -1.74811 1.20616 -16.8394 -22.1583 -0.53 10.8316 -1.19271e-015 1.98785e-016 -3.18055e-015 -0.786 0.112 2.5817 -3.97569e-016 1.98785e-016 -3.18055e-015 -0.3601 -0.878 4.2331 -2.98177e-016 1.98785e-016 -3.18055e-015 -1.8127 -1.216 2.2227 -2.98177e-016 3.97569e-016 -0 -0.9571 1.114 1.7695 4.96962e-016 0 -6.36111e-015 -4.1246 0.487 4.1451 -9.93923e-017 3.97569e-016 -0 -3.4052 -1.454 2.7682 -8.94531e-016 5.96354e-016 -0 -1.4531 -1.795 1.2713 -3.97569e-016 3.97569e-016 -0 -5.6954 0.21 2.1184 -9.93923e-017 3.97569e-016 -0 -3.9766 -1.54 2.3863 -8.94531e-016 5.96354e-016 -0 -1.4042 -1.926 1.125 -3.97569e-016 3.97569e-016 -0 -2.0956 0.66 -0.3894 4.96962e-016 0 -6.36111e-015 -5.0395 -0.09 2.4971 -9.93923e-017 3.97569e-016 -0 -3.7921 -1.552 1.4806 -8.94531e-016 5.96354e-016 -0 -1.4655 -1.808 0.9609 -3.97569e-016 3.97569e-016 -0 -4.9141 -1.269 0.3592 -9.93923e-017 3.97569e-016 -0 -3.1477 -1.685 0.8462 -8.94531e-016 5.96354e-016 -0 -0.8055 -1.585 0.7955 -3.97569e-016 3.97569e-016 -0 8.367 -8.2066 0.5982 -4.66115 -1.03232 0.120763 2.1923 -43.463 -0.4932 0.00990601 1.55097 0.177175 0.7333 -45.8593 -2.6451 4.65196 -0.54114 -0.255042 -8.367 -8.2066 0.5982 4.66115 -1.03222 -0.120763 -2.1923 -43.463 -0.4931 -0.00990459 1.5509 -0.177176 -0.7333 -45.8593 -2.6451 -4.65196 -0.541171 0.255041 
1.4457 55.1695 39.0837 -0.0136914 0.00203941 -100.022 7.10543e-015 -1.186 -1.5018 0.969824 0.510497 -0.136433 0 9.964 0.2134 1.94098 1.01861 -0.281457 -7.10543e-015 13.134 -3.2573 1.94098 1.01861 -0.281449 0 20.686 -1.6905 -0.00747435 7.39823 -0.165007 0 7.238 -0.1237 0.000833085 -27.5576 -0.0922092 1.7069 20.075 5.0056 4.60794 -44.9368 28.5766 13.6458 -0.047 -4.849 -33.9945 41.8678 5.2996 28.3255 -0.9759 2.2888 9.2332 -19.9997 -12.4125 22.1583 -0.53 10.8316 -13.9011 -21.5556 1.11556 0.786 0.112 2.5817 -6.36111e-015 0 2.38542e-015 0.3601 -0.878 4.2331 -5.68093e-007 4.65304e-007 4.35149e-007 1.8127 -1.216 2.2227 3.18055e-015 -7.95139e-015 -0 0.9571 1.114 1.7695 -3.18055e-015 0 1.59028e-015 4.1246 0.487 4.1451 -6.36111e-015 -3.18055e-015 5.56597e-015 3.4052 -1.454 2.7682 -5.68093e-007 4.65304e-007 4.35149e-007 1.4531 -1.795 1.2713 9.54166e-015 3.18055e-015 2.38542e-015 5.6954 0.21 2.1184 -6.36111e-015 -3.18055e-015 5.56597e-015 3.9766 -1.54 2.3863 -5.68093e-007 4.65304e-007 4.35149e-007 1.4042 -1.926 1.125 9.54166e-015 3.18055e-015 2.38542e-015 2.0956 0.66 -0.3894 -3.18055e-015 0 1.59028e-015 5.0395 -0.09 2.4971 -6.36111e-015 -3.18055e-015 5.56597e-015 3.7921 -1.552 1.4806 -5.68093e-007 4.65304e-007 4.35149e-007 1.4655 -1.808 0.9609 9.54166e-015 3.18055e-015 2.38542e-015 4.9141 -1.269 0.3591 -6.36111e-015 -3.18055e-015 5.56597e-015 3.1477 -1.685 0.8462 -5.68093e-007 4.65304e-007 4.35149e-007 0.8055 -1.585 0.7955 9.54166e-015 3.18055e-015 2.38542e-015 -1.7069 20.075 5.0056 -1.63719 -32.7255 -4.84523 -13.6458 -0.047 -4.849 26.5338 4.9524 2.64814 -28.3255 -0.9759 2.2888 4.65392 0.259075 34.1474 -22.1583 -0.53 10.8316 11.0968 -7.12967 -22.9351 -0.786 0.112 2.5817 -1.99131e-006 -9.59222e-008 -2.32538e-007 -0.3601 -0.878 4.2331 1.17102e-006 9.78402e-007 -7.6224e-007 -1.8127 -1.216 2.2227 2.34775e-007 -1.37168e-006 1.3759e-006 -0.9571 1.114 1.7695 -3.18055e-015 -5.56597e-015 2.38542e-015 -4.1246 0.487 4.1451 -1.99131e-006 -9.59222e-008 -2.32538e-007 -3.4052 -1.454 2.7682 1.17102e-006 9.78402e-007 -7.6224e-007 -1.4531 -1.795 1.2713 2.34775e-007 -1.37168e-006 1.3759e-006 -5.6954 0.21 2.1184 -1.99131e-006 -9.59222e-008 -2.32538e-007 -3.9766 -1.54 2.3863 1.17102e-006 9.78402e-007 -7.6224e-007 -1.4042 -1.926 1.125 2.34775e-007 -1.37168e-006 1.3759e-006 -2.0956 0.66 -0.3894 -3.18055e-015 -5.56597e-015 2.38542e-015 -5.0395 -0.09 2.4971 -1.99131e-006 -9.59222e-008 -2.32538e-007 -3.7921 -1.552 1.4806 1.17102e-006 9.78402e-007 -7.6224e-007 -1.4655 -1.808 0.9609 2.34775e-007 -1.37168e-006 1.3759e-006 -4.9141 -1.269 0.3592 -1.99131e-006 -9.59222e-008 -2.32538e-007 -3.1477 -1.685 0.8462 1.17102e-006 9.78402e-007 -7.6224e-007 -0.8055 -1.585 0.7955 2.34775e-007 -1.37168e-006 1.3759e-006 8.367 -8.2066 0.5982 0.218842 -14.948 4.14328 2.1923 -43.463 -0.4932 17.3764 77.7853 -15.131 0.7333 -45.8593 -2.6451 -0.831419 39.1308 -9.77599 -8.367 -8.2066 0.5982 0.516275 -12.7329 -3.74998 -2.1923 -43.463 -0.4931 -23.1416 77.0191 20.9401 -0.7333 -45.8593 -2.6451 -6.93907 28.7189 -5.77426 
5.83158 38.5744 53.5102 -0.0128701 0.0139297 -145.032 -3.55271e-015 -1.186 -1.5018 1.26472 0.934713 0.123238 0 9.964 0.2134 2.52794 1.87191 0.22593 -3.55271e-015 13.134 -3.2573 2.52794 1.87191 0.225909 0 20.686 -1.6905 -0.0075931 10.729 0.58294 0 7.238 -0.1237 0.0793426 -39.2305 0.368308 1.7069 20.075 5.0056 30.0209 -57.1176 57.7193 13.6458 -0.047 -4.849 -50.3561 60.7063 5.3677 28.3255 -0.9759 2.2888 7.60484 -25.0673 -28.1465 22.1583 -0.53 10.8316 -20.2035 -31.6289 1.38657 0.786 0.112 2.5817 -5.25212e-007 1.87367e-007 -6.45956e-007 0.3601 -0.878 4.2331 -7.667e-007 -1.33875e-007 1.69638e-006 1.8127 -1.216 2.2227 4.48515e-007 4.57643e-006 -1.50588e-006 0.9571 1.114 1.7695 -3.18055e-015 3.18055e-015 2.78299e-015 4.1246 0.487 4.1451 -5.25212e-007 1.87367e-007 -6.45956e-007 3.4052 -1.454 2.7682 -7.667e-007 -1.33875e-007 1.69638e-006 1.4531 -1.795 1.2713 4.48515e-007 4.57643e-006 -1.50588e-006 5.6954 0.21 2.1184 -5.25212e-007 1.87367e-007 -6.45956e-007 3.9766 -1.54 2.3863 -7.667e-007 -1.33875e-007 1.69638e-006 1.4042 -1.926 1.125 4.48515e-007 4.57643e-006 -1.50588e-006 2.0956 0.66 -0.3894 -3.18055e-015 3.18055e-015 2.78299e-015 5.0395 -0.09 2.4971 -5.25212e-007 1.87367e-007 -6.45956e-007 3.7921 -1.552 1.4806 -7.667e-007 -1.33875e-007 1.69638e-006 1.4655 -1.808 0.9609 4.48515e-007 4.57643e-006 -1.50588e-006 4.9141 -1.269 0.3591 -5.25212e-007 1.87367e-007 -6.45956e-007 3.1477 -1.685 0.8462 -7.667e-007 -1.33875e-007 1.69638e-006 0.8055 -1.585 0.7955 4.48515e-007 4.57643e-006 -1.50588e-006 -1.7069 20.075 5.0056 -7.4423 -46.5855 -12.4089 -13.6458 -0.047 -4.849 38.6954 7.08599 6.15367 -28.3255 -0.9759 2.2888 7.81726 -1.05119 57.3529 -22.1583 -0.53 10.8316 13.2814 -11.3771 -32.6445 -0.786 0.112 2.5817 -3.18055e-015 -9.54166e-015 -0 -0.3601 -0.878 4.2331 -8.82781e-031 -7.95139e-015 -6.36111e-015 -1.8127 -1.216 2.2227 2.64834e-031 -4.77083e-015 3.18055e-015 -0.9571 1.114 1.7695 -8.82781e-032 1.59028e-015 3.18055e-015 -4.1246 0.487 4.1451 -3.18055e-015 -4.77083e-015 -3.18055e-015 -3.4052 -1.454 2.7682 -9.54166e-015 -1.11319e-014 -0 -1.4531 -1.795 1.2713 -1.32417e-030 -1.19271e-014 -6.36111e-015 -5.6954 0.21 2.1184 -3.18055e-015 -4.77083e-015 -3.18055e-015 -3.9766 -1.54 2.3863 -9.54166e-015 -1.11319e-014 -0 -1.4042 -1.926 1.125 -1.32417e-030 -1.19271e-014 -6.36111e-015 -2.0956 0.66 -0.3894 -8.82781e-032 1.59028e-015 3.18055e-015 -5.0395 -0.09 2.4971 -3.18055e-015 -4.77083e-015 -3.18055e-015 -3.7921 -1.552 1.4806 -9.54166e-015 -1.11319e-014 -0 -1.4655 -1.808 0.9609 -1.32417e-030 -1.19271e-014 -6.36111e-015 -4.9141 -1.269 0.3592 -3.18055e-015 -4.77083e-015 -3.18055e-015 -3.1477 -1.685 0.8462 -9.54166e-015 -1.11319e-014 -0 -0.8055 -1.585 0.7955 -1.32417e-030 -1.19271e-014 -6.36111e-015 8.367 -8.2066 0.5982 2.56927 -23.2248 7.87231 2.1923 -43.463 -0.4932 165.984 65.1897 -159.994 0.7333 -45.8593 -2.6451 2.25058 56.7484 -17.5286 -8.367 -8.2066 0.5982 -1.45155 -19.0377 -7.36488 -2.1923 -43.463 -0.4931 -161.668 65.6573 155.035 -0.7333 -45.8593 -2.6451 -5.31283 42.0637 -10.5207 
4.51718 41.7766 50.1584 -0.0140974 0.0111947 -135.03 0 -1.186 -1.5018 0.874463 1.26699 0.7565 0 9.964 0.2134 1.73276 2.54526 1.49411 0 13.134 -3.2573 1.73276 2.54526 1.49411 0 20.686 -1.6905 -0.000298098 9.98825 2.24396 0 7.238 -0.1237 0.186111 -35.0134 1.34751 1.7069 20.075 5.0056 22.2715 -58.1421 46.7183 13.6458 -0.047 -4.849 -47.1335 56.6014 5.91666 28.3255 -0.9759 2.2888 8.64329 -24.686 -26.4117 22.1583 -0.53 10.8316 -19.0305 -29.8968 3.00546 0.786 0.112 2.5817 -5.96354e-015 4.77083e-015 2.33572e-014 0.3601 -0.878 4.2331 1.30041e-006 -2.59997e-007 -1.04111e-006 1.8127 -1.216 2.2227 7.95139e-016 -1.27222e-014 6.95746e-016 0.9571 1.114 1.7695 5.51738e-032 1.59028e-015 -1.98785e-015 4.1246 0.487 4.1451 -4.77083e-015 0 2.3556e-014 3.4052 -1.454 2.7682 1.30041e-006 -2.59997e-007 -1.04111e-006 1.4531 -1.795 1.2713 3.97569e-016 -1.11319e-014 3.97569e-015 5.6954 0.21 2.1184 -4.77083e-015 0 2.3556e-014 3.9766 -1.54 2.3863 1.30041e-006 -2.59997e-007 -1.04111e-006 1.4042 -1.926 1.125 3.97569e-016 -1.11319e-014 3.97569e-015 2.0956 0.66 -0.3894 5.51738e-032 1.59028e-015 -1.98785e-015 5.0395 -0.09 2.4971 -4.77083e-015 0 2.3556e-014 3.7921 -1.552 1.4806 1.30041e-006 -2.59997e-007 -1.04111e-006 1.4655 -1.808 0.9609 3.97569e-016 -1.11319e-014 3.97569e-015 4.9141 -1.269 0.3591 -4.77083e-015 0 2.3556e-014 3.1477 -1.685 0.8462 1.30041e-006 -2.59997e-007 -1.04111e-006 0.8055 -1.585 0.7955 3.97569e-016 -1.11319e-014 3.97569e-015 -1.7069 20.075 5.0056 -10.2685 -41.9049 -17.9562 -13.6458 -0.047 -4.849 36.0211 6.62907 5.39021 -28.3255 -0.9759 2.2888 7.06478 -0.687391 52.9535 -22.1583 -0.53 10.8316 13.9988 -13.3474 -28.2043 -0.786 0.112 2.5817 -0 -5.56597e-015 -0 -0.3601 -0.878 4.2331 -1.32417e-031 -2.38542e-015 -3.18055e-015 -1.8127 -1.216 2.2227 -1.96401e-006 -2.07634e-006 1.798e-006 -0.9571 1.114 1.7695 8.82781e-032 -1.59028e-015 3.18055e-015 -4.1246 0.487 4.1451 5.6498e-030 -2.54444e-014 1.27222e-014 -3.4052 -1.454 2.7682 -3.18055e-015 -5.56597e-015 3.18055e-015 -1.4531 -1.795 1.2713 -1.96401e-006 -2.07634e-006 1.798e-006 -5.6954 0.21 2.1184 5.6498e-030 -2.54444e-014 1.27222e-014 -3.9766 -1.54 2.3863 -3.18055e-015 -5.56597e-015 3.18055e-015 -1.4042 -1.926 1.125 -1.96401e-006 -2.07634e-006 1.798e-006 -2.0956 0.66 -0.3894 8.82781e-032 -1.59028e-015 3.18055e-015 -5.0395 -0.09 2.4971 5.6498e-030 -2.54444e-014 1.27222e-014 -3.7921 -1.552 1.4806 -3.18055e-015 -5.56597e-015 3.18055e-015 -1.4655 -1.808 0.9609 -1.96401e-006 -2.07634e-006 1.798e-006 -4.9141 -1.269 0.3592 5.6498e-030 -2.54444e-014 1.27222e-014 -3.1477 -1.685 0.8462 -3.18055e-015 -5.56597e-015 3.18055e-015 -0.8055 -1.585 0.7955 -1.96401e-006 -2.07634e-006 1.798e-006 8.367 -8.2066 0.5982 2.02248 -21.2259 6.86091 2.1923 -43.463 -0.4932 161.436 72.3786 -156.473 0.7333 -45.8593 -2.6451 1.02864 52.0903 -15.3956 -8.367 -8.2066 0.5982 -0.991167 -17.5381 -6.36607 -2.1923 -43.463 -0.4931 -155.425 72.5274 150.02 -0.7333 -45.8593 -2.6451 -5.82157 38.34 -9.2354 
